<svg xmlns="http://www.w3.org/2000/svg" viewBox="0 0 1440 480" preserveAspectRatio="none">
  <defs>
    <radialGradient id="water"><stop stop-color="#608f9c" stop-opacity=".46"/><stop offset=".55" stop-color="#608f9c" stop-opacity=".18"/><stop offset="1" stop-color="#608f9c" stop-opacity="0"/></radialGradient>
    <radialGradient id="earth"><stop stop-color="#ca947c" stop-opacity=".44"/><stop offset=".5" stop-color="#ca947c" stop-opacity=".19"/><stop offset="1" stop-color="#ca947c" stop-opacity="0"/></radialGradient>
    <linearGradient id="flow" x1="550" y1="490" x2="1180" y2="-50" gradientUnits="userSpaceOnUse"><stop stop-color="#fffaf1" stop-opacity="0"/><stop offset=".27" stop-color="#fffaf1" stop-opacity=".65"/><stop offset=".72" stop-color="#fffaf1" stop-opacity=".95"/><stop offset="1" stop-color="#fffaf1" stop-opacity=".1"/></linearGradient>
    <linearGradient id="echo" x1="730" y1="480" x2="1200" y2="0" gradientUnits="userSpaceOnUse"><stop stop-color="#608f9c" stop-opacity="0"/><stop offset=".5" stop-color="#608f9c" stop-opacity=".23"/><stop offset="1" stop-color="#608f9c" stop-opacity="0"/></linearGradient>
    <filter id="soft" x="-30%" y="-30%" width="160%" height="160%" color-interpolation-filters="sRGB"><feGaussianBlur stdDeviation="13"/></filter>
  </defs>
  <ellipse cx="1080" cy="290" rx="460" ry="270" fill="url(#water)"/>
  <ellipse cx="890" cy="20" rx="390" ry="240" fill="url(#earth)"/>
  <ellipse cx="1440" cy="440" rx="380" ry="210" fill="url(#earth)" opacity=".65"/>
  <ellipse cx="670" cy="490" rx="400" ry="150" fill="url(#water)" opacity=".45"/>
  <path d="M530 540C650 394 1090 424 1110 285S849 185 978 83 1180 22 1205-70" stroke="url(#flow)" stroke-width="100" fill="none" filter="url(#soft)"/>
  <g fill="none" stroke="url(#echo)" stroke-width=".9">
    <path d="M610 505C735 412 1180 408 1168 277S909 163 1030 82 1235 32 1260-50"/>
    <path d="M635 512C760 426 1200 414 1190 275S932 151 1053 73 1256 19 1281-60"/>
    <path d="M660 519C786 440 1220 420 1212 273S955 139 1076 64 1277 6 1302-70"/>
  </g>
</svg>
